HIERARCHY
ROOT Hips
{
	OFFSET -0.001795 -0.223333 0.028219
	CHANNELS 6 Xposition Yposition Zposition Zrotation Yrotation Xrotation 
	JOINT LeftUpLeg
	{
		OFFSET 0.069520 -0.091406 -0.006815
		CHANNELS 3 Zrotation Yrotation Xrotation
		JOINT LeftLeg
		{
			OFFSET 0.034277 -0.375199 -0.004496
			CHANNELS 3 Zrotation Yrotation Xrotation
			JOINT LeftFoot
			{
				OFFSET -0.013596 -0.397961 -0.043693
				CHANNELS 3 Zrotation Yrotation Xrotation
				JOINT LeftToe
				{
					OFFSET 0.026358 -0.055791 0.119288
					CHANNELS 3 Zrotation Yrotation Xrotation
					End Site
					{
						OFFSET 0.000000 0.000000 0.000000
					}
				}
			}
		}
	}
	JOINT RightUpLeg
	{
		OFFSET -0.067670 -0.090522 -0.004320
		CHANNELS 3 Zrotation Yrotation Xrotation
		JOINT RightLeg
		{
			OFFSET -0.038290 -0.382569 -0.008850
			CHANNELS 3 Zrotation Yrotation Xrotation
			JOINT RightFoot
			{
				OFFSET 0.015774 -0.398415 -0.042312
				CHANNELS 3 Zrotation Yrotation Xrotation
				JOINT RightToe
				{
					OFFSET -0.025372 -0.048144 0.123348
					CHANNELS 3 Zrotation Yrotation Xrotation
					End Site
					{
						OFFSET 0.000000 0.000000 0.000000
					}
				}
			}
		}
	}
	JOINT Spine
	{
		OFFSET -0.002533 0.108963 -0.026696
		CHANNELS 3 Zrotation Yrotation Xrotation
		JOINT Spine1
		{
			OFFSET 0.005487 0.135180 0.001092
			CHANNELS 3 Zrotation Yrotation Xrotation
			JOINT Spine2
			{
				OFFSET 0.001457 0.052922 0.025425
				CHANNELS 3 Zrotation Yrotation Xrotation
				JOINT Neck
				{
					OFFSET -0.002778 0.213870 -0.042857
					CHANNELS 3 Zrotation Yrotation Xrotation
					JOINT Head
					{
						OFFSET 0.005152 0.064970 0.051349
						CHANNELS 3 Zrotation Yrotation Xrotation
						End Site
						{
							OFFSET 0.000000 0.000000 0.000000
						}
					}
				}
				JOINT LeftShoulder
				{
					OFFSET 0.078845 0.121749 -0.034090
					CHANNELS 3 Zrotation Yrotation Xrotation
					JOINT LeftArm
					{
						OFFSET 0.090977 0.030469 -0.008868
						CHANNELS 3 Zrotation Yrotation Xrotation
						JOINT LeftForeArm
						{
							OFFSET 0.259612 -0.012772 -0.027456
							CHANNELS 3 Zrotation Yrotation Xrotation
							JOINT LeftHand
							{
								OFFSET 0.249234 0.008986 -0.001171
								CHANNELS 3 Zrotation Yrotation Xrotation
								End Site
								{
									OFFSET 0.000000 0.000000 0.000000
								}
							}
						}
					}
				}
				JOINT RightShoulder
				{
					OFFSET -0.081759 0.118833 -0.038615
					CHANNELS 3 Zrotation Yrotation Xrotation
					JOINT RightArm
					{
						OFFSET -0.096012 0.032551 -0.009143
						CHANNELS 3 Zrotation Yrotation Xrotation
						JOINT RightForeArm
						{
							OFFSET -0.253742 -0.013329 -0.021401
							CHANNELS 3 Zrotation Yrotation Xrotation
							JOINT RightHand
							{
								OFFSET -0.255298 0.007772 -0.005559
								CHANNELS 3 Zrotation Yrotation Xrotation
								End Site
								{
									OFFSET 0.000000 0.000000 0.000000
								}
							}
						}
					}
				}
			}
		}
	}
}
MOTION
Frames: 6
Frame Time: 0.050000
0.000000 0.974970 0.000000 -0.655258 -2.205343 -1.622897 8.005600 0.061855 3.535206 -2.650714 0.436651 -10.793405 9.843315 20.041503 46.676227 0.000000 0.000000 0.000000 -7.641378 0.321283 -3.900295 0.961971 -0.139461 -1.309108 -10.836690 -22.655546 50.640566 0.000000 0.000000 0.000000 5.668202 -0.916544 10.160669 -5.802509 1.702940 -36.165491 -1.645313 3.924766 36.637241 12.502363 -2.851205 -45.950710 0.000000 0.000000 0.000000 -18.166095 0.132712 -1.038634 -47.762792 -4.338464 -7.720402 0.851811 -1.430223 0.062163 0.000000 0.000000 0.000000 24.751495 -3.823462 -2.548165 48.615014 11.986479 -4.160519 2.849856 9.743684 0.584811 0.000000 0.000000 0.000000 
-0.014051 0.977546 0.001531 -0.483121 -3.387076 -1.419754 8.911230 0.055392 3.063947 -2.621327 0.434515 -9.728892 8.860312 19.132274 48.256572 0.000000 0.000000 0.000000 -7.567762 0.323990 -3.164476 1.760274 -0.214679 -1.647200 -7.454247 -19.932848 44.918546 0.000000 0.000000 0.000000 6.243668 -0.990654 10.493286 -5.148674 1.616667 -36.771644 -2.427730 6.467904 36.214281 14.274248 -3.113900 -46.614293 0.000000 0.000000 0.000000 -16.740959 1.321000 -1.953945 -47.945478 -4.270362 -7.635108 3.724379 -1.412198 0.063510 0.000000 0.000000 0.000000 25.538552 -5.354499 -3.089365 47.490789 12.475962 -3.994778 2.389224 12.340840 0.775252 0.000000 0.000000 0.000000 
-0.028399 0.981110 0.001539 0.308750 -3.766465 -1.089004 8.950311 0.049347 2.444729 -3.028908 0.458755 -10.113333 10.841801 20.672028 52.952013 0.000000 0.000000 0.000000 -7.591917 0.325471 -2.786429 1.570893 -0.261091 -4.298386 -9.080016 -21.416687 48.744483 0.000000 0.000000 0.000000 6.072139 -0.878892 9.388492 -6.286362 1.759734 -37.373592 -2.014339 6.200034 36.812921 12.608559 -2.325829 -48.574416 0.000000 0.000000 0.000000 -15.973197 0.506979 -1.237991 -46.618126 -2.974094 -8.168312 9.006467 3.153927 0.270626 0.000000 0.000000 0.000000 25.334758 -5.541063 -3.279234 43.255741 13.426211 -3.752164 4.835819 9.888703 0.716937 0.000000 0.000000 0.000000 
-0.042804 0.984494 0.000751 0.729271 -4.098647 -1.548857 9.659377 0.053449 2.055680 -2.988583 0.452903 -9.469002 10.013647 20.072460 55.313967 0.000000 0.000000 0.000000 -7.138868 0.285063 -1.790280 1.531335 -0.284739 -5.528692 -13.534639 -25.294463 48.457918 0.000000 0.000000 0.000000 6.530289 -1.005139 10.504668 -6.861256 1.850151 -36.986204 -3.512410 4.327033 36.026642 13.673823 -3.180365 -47.776057 0.000000 0.000000 0.000000 -14.866476 4.224652 -2.669763 -43.324933 -1.885965 -7.992372 12.497435 4.986427 0.585017 0.000000 0.000000 0.000000 23.621620 -3.982044 -2.821618 41.462406 14.373394 -3.117915 5.519898 10.099050 0.757067 0.000000 0.000000 0.000000 
-0.057000 0.987961 -0.000322 1.370698 -5.020736 -1.923318 9.201158 0.095264 2.150095 -1.390612 0.422687 -10.147812 10.138838 20.200467 60.464717 0.000000 0.000000 0.000000 -7.028655 0.268652 -1.053766 1.826109 -0.347849 -8.930918 -21.777736 -31.503024 51.763093 0.000000 0.000000 0.000000 5.975185 -0.967319 10.894363 -7.108356 1.861517 -39.933978 -2.601912 5.165493 39.236814 15.193098 -2.982898 -53.422086 0.000000 0.000000 0.000000 -11.221554 3.128038 -1.715020 -40.810803 -2.731047 -7.719512 17.395468 13.372975 1.967264 0.000000 0.000000 0.000000 22.963652 -4.532667 -2.869135 37.161460 17.437161 -2.612510 6.653853 8.013794 0.604633 0.000000 0.000000 0.000000 
-0.069969 0.988241 -0.001005 0.915269 -6.196472 -1.187830 9.330317 0.109565 2.089353 0.520164 0.417207 -11.114001 9.095767 19.529087 62.143823 0.000000 0.000000 0.000000 -5.807663 0.269936 -1.254033 1.547420 -0.358120 -10.970450 -26.819044 -35.787066 49.920776 0.000000 0.000000 0.000000 5.842150 -0.997127 11.402082 -5.029563 1.680109 -41.246094 -3.324888 5.539599 39.392502 14.902820 -2.960049 -52.997820 0.000000 0.000000 0.000000 -7.900514 4.207577 -1.967110 -37.726093 -0.842163 -7.607406 21.712457 17.616411 3.272002 0.000000 0.000000 0.000000 20.223502 -3.935259 -2.422428 33.265959 18.586181 -2.230381 8.785092 8.320658 0.722591 0.000000 0.000000 0.000000 
